<svg width="16" height="18" viewBox="0 0 16 18" fill="none" xmlns="http://www.w3.org/2000/svg">
<path d="M10.5007 13.1667H14.6673L13.4965 11.9959C13.179 11.6784 13.0007 11.2477 13.0007 10.7987V8.16667C13.0007 5.98964 11.6093 4.13757 9.66732 3.45118V3.16667C9.66732 2.24619 8.92113 1.5 8.00065 1.5C7.08018 1.5 6.33398 2.24619 6.33398 3.16667V3.45118C4.392 4.13757 3.00065 5.98964 3.00065 8.16667V10.7987C3.00065 11.2477 2.82227 11.6784 2.50476 11.9959L1.33398 13.1667H5.50065M10.5007 13.1667V14C10.5007 15.3807 9.38136 16.5 8.00065 16.5C6.61994 16.5 5.50065 15.3807 5.50065 14V13.1667M10.5007 13.1667H5.50065" stroke="white" stroke-width="1.5" stroke-linecap="round" stroke-linejoin="round"/>
</svg>
